<mxfile host="65bd71144e">
    <diagram id="PtEXJaQyMs-Zg_HfF2M-" name="Page-1">
        <mxGraphModel dx="1880" dy="784" grid="0" gridSize="10" guides="1" tooltips="1" connect="1" arrows="1" fold="1" page="1" pageScale="1" pageWidth="4400" pageHeight="3400" math="0" shadow="0">
            <root>
                <mxCell id="0"/>
                <mxCell id="1" parent="0"/>
                <mxCell id="82" value="product page" style="swimlane;whiteSpace=wrap;html=1;startSize=38;fontSize=16;fillColor=none;fontFamily=Courier New;" parent="1" vertex="1">
                    <mxGeometry x="2700" y="1126" width="930" height="1035" as="geometry">
                        <mxRectangle x="2643" y="222" width="112" height="31" as="alternateBounds"/>
                    </mxGeometry>
                </mxCell>
                <mxCell id="105" value="&lt;div style=&quot;color: rgb(204, 204, 204); background-color: rgb(31, 31, 31); font-size: 16.8px; line-height: 22px;&quot;&gt;&lt;div style=&quot;&quot;&gt;&lt;span style=&quot;color: rgb(156, 220, 254);&quot;&gt;master_footer&lt;/span&gt;&lt;/div&gt;&lt;/div&gt;" style="text;whiteSpace=wrap;html=1;fontSize=16;fontColor=#000000;strokeColor=#99CCFF;dashed=1;align=center;fontFamily=Courier New;fontStyle=1" parent="82" vertex="1">
                    <mxGeometry x="17" y="780" width="901" height="104" as="geometry"/>
                </mxCell>
                <mxCell id="103" value="&lt;div style=&quot;color: rgb(204, 204, 204); background-color: rgb(31, 31, 31); font-size: 16.8px; line-height: 22px;&quot;&gt;&lt;div style=&quot;&quot;&gt;&lt;span style=&quot;color: rgb(156, 220, 254);&quot;&gt;master_head&lt;/span&gt;&lt;/div&gt;&lt;/div&gt;" style="text;whiteSpace=wrap;html=1;fontSize=16;fontColor=#000000;strokeColor=#99CCFF;dashed=1;align=center;fontFamily=Courier New;fontStyle=1" parent="82" vertex="1">
                    <mxGeometry x="17" y="52" width="901" height="115" as="geometry"/>
                </mxCell>
                <mxCell id="99" value="main" style="rounded=0;whiteSpace=wrap;html=1;labelBackgroundColor=none;fontSize=16;fillColor=none;verticalAlign=top;fontFamily=Courier New;fontStyle=1;fontColor=#A2E080;labelBorderColor=none;strokeColor=#A2E080;dashed=1;" parent="82" vertex="1">
                    <mxGeometry x="144.49" y="255" width="642" height="497" as="geometry"/>
                </mxCell>
                <mxCell id="83" value="navbar" style="rounded=0;whiteSpace=wrap;html=1;fillColor=#d0cee2;strokeColor=#56517e;fontColor=#000000;fontSize=16;fontFamily=Courier New;fontStyle=1" parent="82" vertex="1">
                    <mxGeometry x="173.49499999999995" y="101" width="580" height="40" as="geometry"/>
                </mxCell>
                <mxCell id="85" value="sidebar" style="rounded=0;whiteSpace=wrap;html=1;fontSize=16;fillColor=#fad7ac;strokeColor=none;fontColor=#000000;labelBackgroundColor=none;fontFamily=Courier New;fontStyle=1;verticalAlign=top;" parent="82" vertex="1">
                    <mxGeometry x="173.49" y="291" width="151.25" height="440" as="geometry"/>
                </mxCell>
                <mxCell id="86" value="center" style="rounded=0;whiteSpace=wrap;html=1;fontSize=16;fillColor=#fad9d5;strokeColor=none;fontColor=#000000;labelBackgroundColor=none;fontFamily=Courier New;fontStyle=1;verticalAlign=top;" parent="82" vertex="1">
                    <mxGeometry x="337.74" y="291" width="406.25" height="440" as="geometry"/>
                </mxCell>
                <mxCell id="90" value="footer" style="rounded=0;whiteSpace=wrap;html=1;fillColor=#d0cee2;strokeColor=#56517e;fontColor=#000000;fontSize=16;fontFamily=Courier New;fontStyle=1" parent="82" vertex="1">
                    <mxGeometry x="148.31" y="819" width="641" height="40" as="geometry"/>
                </mxCell>
                <mxCell id="96" value="top_msg" style="rounded=0;whiteSpace=wrap;html=1;fillColor=none;fontSize=16;fontFamily=Courier New;fontStyle=1;dashed=1;" parent="82" vertex="1">
                    <mxGeometry x="14.81" y="191" width="903" height="39" as="geometry"/>
                </mxCell>
                <mxCell id="3" value="Landing Page (Home)&lt;br&gt;Lineup list&amp;nbsp;" style="rounded=1;whiteSpace=wrap;html=1;fillColor=#007dba;fontColor=#ffffff;strokeColor=#001DBC;" parent="1" vertex="1">
                    <mxGeometry x="803" y="129" width="246" height="64" as="geometry"/>
                </mxCell>
                <mxCell id="6" value="Configurator Page" style="rounded=1;whiteSpace=wrap;html=1;fillColor=#007dba;fontColor=#ffffff;strokeColor=#001DBC;" parent="1" vertex="1">
                    <mxGeometry x="809" y="243" width="246" height="64" as="geometry"/>
                </mxCell>
                <mxCell id="7" value="/" style="rounded=1;whiteSpace=wrap;html=1;" parent="1" vertex="1">
                    <mxGeometry x="498" y="128" width="251" height="66" as="geometry"/>
                </mxCell>
                <mxCell id="8" value="" style="endArrow=classic;html=1;exitX=1;exitY=0.5;exitDx=0;exitDy=0;" parent="1" source="7" target="3" edge="1">
                    <mxGeometry width="50" height="50" relative="1" as="geometry">
                        <mxPoint x="863" y="418" as="sourcePoint"/>
                        <mxPoint x="913" y="368" as="targetPoint"/>
                    </mxGeometry>
                </mxCell>
                <mxCell id="10" value="Itemized Bill of Material" style="rounded=1;whiteSpace=wrap;html=1;fillColor=#007dba;fontColor=#ffffff;strokeColor=#001DBC;" parent="1" vertex="1">
                    <mxGeometry x="809" y="355" width="246" height="64" as="geometry"/>
                </mxCell>
                <mxCell id="17" style="edgeStyle=none;html=1;entryX=0;entryY=0.5;entryDx=0;entryDy=0;" parent="1" source="14" target="6" edge="1">
                    <mxGeometry relative="1" as="geometry">
                        <mxPoint x="790.0344827586207" y="274.9999999999999" as="targetPoint"/>
                    </mxGeometry>
                </mxCell>
                <mxCell id="14" value="/product/bg1/lineup1/&amp;lt;id&amp;gt;" style="rounded=1;whiteSpace=wrap;html=1;" parent="1" vertex="1">
                    <mxGeometry x="497" y="242" width="252" height="66" as="geometry"/>
                </mxCell>
                <mxCell id="18" style="edgeStyle=none;html=1;entryX=0;entryY=0.5;entryDx=0;entryDy=0;" parent="1" source="15" target="10" edge="1">
                    <mxGeometry relative="1" as="geometry"/>
                </mxCell>
                <mxCell id="15" value="&lt;span style=&quot;color: rgb(255, 255, 255);&quot;&gt;/product/bg1/bom/&amp;lt;lineup1_id&amp;gt;&lt;/span&gt;" style="rounded=1;whiteSpace=wrap;html=1;" parent="1" vertex="1">
                    <mxGeometry x="496" y="355" width="253" height="66" as="geometry"/>
                </mxCell>
                <mxCell id="23" value="Unit Page" style="rounded=1;whiteSpace=wrap;html=1;fillColor=#007dba;fontColor=#ffffff;strokeColor=#001DBC;" parent="1" vertex="1">
                    <mxGeometry x="809" y="476" width="246" height="64" as="geometry"/>
                </mxCell>
                <mxCell id="24" style="edgeStyle=none;html=1;" parent="1" source="25" target="23" edge="1">
                    <mxGeometry relative="1" as="geometry"/>
                </mxCell>
                <mxCell id="25" value="/product/bg1/unit/&amp;lt;unit1_id&amp;gt;" style="rounded=1;whiteSpace=wrap;html=1;" parent="1" vertex="1">
                    <mxGeometry x="488" y="476" width="261" height="66" as="geometry"/>
                </mxCell>
                <mxCell id="46" style="edgeStyle=none;html=1;fontSize=16;" parent="1" source="32" target="34" edge="1">
                    <mxGeometry relative="1" as="geometry"/>
                </mxCell>
                <mxCell id="75" style="edgeStyle=none;curved=1;html=1;dashed=1;fontSize=16;fontColor=#000000;endArrow=none;endFill=0;" parent="1" source="32" target="74" edge="1">
                    <mxGeometry relative="1" as="geometry"/>
                </mxCell>
                <mxCell id="32" value="/" style="rounded=1;whiteSpace=wrap;html=1;fontSize=16;" parent="1" vertex="1">
                    <mxGeometry x="1835" y="1186.5" width="130" height="49" as="geometry"/>
                </mxCell>
                <mxCell id="80" style="edgeStyle=none;curved=1;html=1;entryX=0;entryY=0.5;entryDx=0;entryDy=0;dashed=1;fontSize=16;fontColor=#000000;endArrow=none;endFill=0;" parent="1" source="34" target="79" edge="1">
                    <mxGeometry relative="1" as="geometry"/>
                </mxCell>
                <mxCell id="81" style="edgeStyle=none;curved=1;html=1;fontSize=16;fontColor=#000000;endArrow=classic;endFill=1;entryX=0.5;entryY=0;entryDx=0;entryDy=0;" parent="1" source="34" target="35" edge="1">
                    <mxGeometry relative="1" as="geometry">
                        <mxPoint x="1900.5" y="1384.277811686198" as="targetPoint"/>
                    </mxGeometry>
                </mxCell>
                <mxCell id="34" value="/main" style="rounded=1;whiteSpace=wrap;html=1;fontSize=16;" parent="1" vertex="1">
                    <mxGeometry x="1835" y="1305.5" width="130" height="49" as="geometry"/>
                </mxCell>
                <mxCell id="54" style="edgeStyle=none;html=1;entryX=0.5;entryY=0;entryDx=0;entryDy=0;fontSize=16;endArrow=classic;endFill=1;curved=1;exitX=0.5;exitY=1;exitDx=0;exitDy=0;" parent="1" source="35" target="38" edge="1">
                    <mxGeometry relative="1" as="geometry">
                        <Array as="points">
                            <mxPoint x="1900" y="1491"/>
                            <mxPoint x="1963" y="1490"/>
                        </Array>
                    </mxGeometry>
                </mxCell>
                <mxCell id="78" style="edgeStyle=none;curved=1;html=1;dashed=1;fontSize=16;fontColor=#000000;endArrow=none;endFill=0;" parent="1" source="35" target="76" edge="1">
                    <mxGeometry relative="1" as="geometry"/>
                </mxCell>
                <mxCell id="35" value="&lt;span style=&quot;white-space: pre;&quot;&gt;&#9;&lt;/span&gt;/product" style="rounded=1;whiteSpace=wrap;html=1;fontSize=16;align=left;fillColor=#dae8fc;gradientColor=#7ea6e0;strokeColor=#6c8ebf;fontColor=#000000;" parent="1" vertex="1">
                    <mxGeometry x="1835" y="1416.5" width="130" height="49" as="geometry"/>
                </mxCell>
                <mxCell id="50" style="edgeStyle=none;html=1;fontSize=16;endArrow=none;endFill=0;" parent="1" source="36" target="37" edge="1">
                    <mxGeometry relative="1" as="geometry"/>
                </mxCell>
                <mxCell id="36" value="/service" style="rounded=1;whiteSpace=wrap;html=1;fontSize=16;" parent="1" vertex="1">
                    <mxGeometry x="2217" y="904" width="159" height="49" as="geometry"/>
                </mxCell>
                <mxCell id="37" value="/doc" style="rounded=1;whiteSpace=wrap;html=1;fontSize=16;" parent="1" vertex="1">
                    <mxGeometry x="2443" y="904" width="166" height="49" as="geometry"/>
                </mxCell>
                <mxCell id="68" style="edgeStyle=none;curved=1;html=1;fontSize=16;fontColor=#000000;endArrow=none;endFill=0;dashed=1;" parent="1" source="38" target="67" edge="1">
                    <mxGeometry relative="1" as="geometry"/>
                </mxCell>
                <mxCell id="38" value="&lt;span style=&quot;white-space: pre;&quot;&gt;&#9;&lt;/span&gt;.../bg15" style="rounded=1;whiteSpace=wrap;html=1;fontSize=16;align=left;fillColor=#f5f5f5;gradientColor=#b3b3b3;strokeColor=#666666;fontColor=#000000;" parent="1" vertex="1">
                    <mxGeometry x="1897" y="1522.5" width="130" height="49" as="geometry"/>
                </mxCell>
                <mxCell id="56" style="edgeStyle=none;curved=1;html=1;fontSize=16;endArrow=classic;endFill=1;" parent="1" source="39" target="40" edge="1">
                    <mxGeometry relative="1" as="geometry"/>
                </mxCell>
                <mxCell id="69" style="edgeStyle=none;curved=1;html=1;dashed=1;fontSize=16;fontColor=#000000;endArrow=none;endFill=0;" parent="1" source="39" target="60" edge="1">
                    <mxGeometry relative="1" as="geometry"/>
                </mxCell>
                <mxCell id="39" value="&lt;span style=&quot;white-space: pre;&quot;&gt;&#9;&lt;/span&gt;.../quote/[quote1_id]" style="rounded=1;whiteSpace=wrap;html=1;fontSize=16;align=left;fillColor=#f5f5f5;gradientColor=#b3b3b3;strokeColor=#666666;fontColor=#000000;" parent="1" vertex="1">
                    <mxGeometry x="1928" y="1638.5" width="250" height="49" as="geometry"/>
                </mxCell>
                <mxCell id="57" style="edgeStyle=none;curved=1;html=1;fontSize=16;endArrow=classic;endFill=1;" parent="1" source="40" target="41" edge="1">
                    <mxGeometry relative="1" as="geometry"/>
                </mxCell>
                <mxCell id="70" style="edgeStyle=none;curved=1;html=1;entryX=0;entryY=0.5;entryDx=0;entryDy=0;dashed=1;fontSize=16;fontColor=#000000;endArrow=none;endFill=0;" parent="1" source="40" target="61" edge="1">
                    <mxGeometry relative="1" as="geometry"/>
                </mxCell>
                <mxCell id="40" value="&lt;span style=&quot;white-space: pre;&quot;&gt;&#9;&lt;/span&gt;.../lineup/[lineup1_id]" style="rounded=1;whiteSpace=wrap;html=1;fontSize=16;align=left;fillColor=#f5f5f5;gradientColor=#b3b3b3;strokeColor=#666666;fontColor=#000000;" parent="1" vertex="1">
                    <mxGeometry x="1928" y="1746.5" width="250" height="49" as="geometry"/>
                </mxCell>
                <mxCell id="58" style="edgeStyle=none;curved=1;html=1;fontSize=16;endArrow=classic;endFill=1;" parent="1" source="41" target="42" edge="1">
                    <mxGeometry relative="1" as="geometry"/>
                </mxCell>
                <mxCell id="71" style="edgeStyle=none;curved=1;html=1;dashed=1;fontSize=16;fontColor=#000000;endArrow=none;endFill=0;entryX=0;entryY=0.5;entryDx=0;entryDy=0;" parent="1" source="41" target="63" edge="1">
                    <mxGeometry relative="1" as="geometry">
                        <mxPoint x="2265.000063578288" y="1879" as="targetPoint"/>
                    </mxGeometry>
                </mxCell>
                <mxCell id="41" value="&lt;span style=&quot;white-space: pre;&quot;&gt;&#9;&lt;/span&gt;.../unit/[unit1_id]" style="rounded=1;whiteSpace=wrap;html=1;fontSize=16;align=left;fillColor=#f5f5f5;gradientColor=#b3b3b3;strokeColor=#666666;fontColor=#000000;" parent="1" vertex="1">
                    <mxGeometry x="1928" y="1854.5" width="250" height="49" as="geometry"/>
                </mxCell>
                <mxCell id="59" style="edgeStyle=none;curved=1;html=1;fontSize=16;endArrow=classic;endFill=1;" parent="1" source="42" target="43" edge="1">
                    <mxGeometry relative="1" as="geometry"/>
                </mxCell>
                <mxCell id="72" style="edgeStyle=none;curved=1;html=1;dashed=1;fontSize=16;fontColor=#000000;endArrow=none;endFill=0;" parent="1" source="42" target="62" edge="1">
                    <mxGeometry relative="1" as="geometry"/>
                </mxCell>
                <mxCell id="42" value="&lt;span style=&quot;white-space: pre;&quot;&gt;&#9;&lt;/span&gt;.../package/[package_id]" style="rounded=1;whiteSpace=wrap;html=1;fontSize=16;align=left;fillColor=#f5f5f5;gradientColor=#b3b3b3;strokeColor=#666666;fontColor=#000000;" parent="1" vertex="1">
                    <mxGeometry x="1928" y="1962.5" width="250" height="49" as="geometry"/>
                </mxCell>
                <mxCell id="73" style="edgeStyle=none;curved=1;html=1;dashed=1;fontSize=16;fontColor=#000000;endArrow=none;endFill=0;" parent="1" source="43" target="64" edge="1">
                    <mxGeometry relative="1" as="geometry"/>
                </mxCell>
                <mxCell id="43" value="&lt;span style=&quot;white-space: pre;&quot;&gt;&#9;&lt;/span&gt;.../item/[item_id]" style="rounded=1;whiteSpace=wrap;html=1;fontSize=16;align=left;fillColor=#f5f5f5;gradientColor=#b3b3b3;strokeColor=#666666;fontColor=#000000;" parent="1" vertex="1">
                    <mxGeometry x="1928" y="2070.5" width="250" height="49" as="geometry"/>
                </mxCell>
                <mxCell id="55" style="edgeStyle=none;html=1;entryX=0.5;entryY=0;entryDx=0;entryDy=0;fontSize=16;endArrow=classic;endFill=1;curved=1;exitX=0.5;exitY=1;exitDx=0;exitDy=0;" parent="1" source="38" target="39" edge="1">
                    <mxGeometry relative="1" as="geometry">
                        <mxPoint x="1947.5000000000005" y="1558.5" as="sourcePoint"/>
                        <mxPoint x="1981.5" y="1602.5" as="targetPoint"/>
                        <Array as="points">
                            <mxPoint x="1965" y="1604.5"/>
                            <mxPoint x="2054" y="1603.5"/>
                        </Array>
                    </mxGeometry>
                </mxCell>
                <mxCell id="60" value="Create quote with lineups&lt;br&gt;CRUD, BOM, PDF, DOC" style="rounded=1;whiteSpace=wrap;html=1;fillColor=#007dba;fontColor=#ffffff;strokeColor=#001DBC;horizontal=1;gradientColor=none;" parent="1" vertex="1">
                    <mxGeometry x="2268" y="1635" width="246" height="56" as="geometry"/>
                </mxCell>
                <mxCell id="61" value="Main Lineup Configurator&lt;br&gt;CRUD, BOM, PDF, DOC" style="rounded=1;whiteSpace=wrap;html=1;fillColor=#007dba;fontColor=#ffffff;strokeColor=#001DBC;" parent="1" vertex="1">
                    <mxGeometry x="2268" y="1743" width="246" height="56" as="geometry"/>
                </mxCell>
                <mxCell id="62" value="Package Details&lt;br&gt;CRUD, DOC" style="rounded=1;whiteSpace=wrap;html=1;fillColor=#007dba;fontColor=#ffffff;strokeColor=#001DBC;" parent="1" vertex="1">
                    <mxGeometry x="2268" y="1959" width="246" height="56" as="geometry"/>
                </mxCell>
                <mxCell id="63" value="Unit Configurator&lt;br&gt;CRUD" style="rounded=1;whiteSpace=wrap;html=1;fillColor=#007dba;fontColor=#ffffff;strokeColor=#001DBC;" parent="1" vertex="1">
                    <mxGeometry x="2268" y="1851" width="246" height="56" as="geometry"/>
                </mxCell>
                <mxCell id="64" value="Item Details&lt;br&gt;CRUD, DOC" style="rounded=1;whiteSpace=wrap;html=1;fillColor=#007dba;fontColor=#ffffff;strokeColor=#001DBC;" parent="1" vertex="1">
                    <mxGeometry x="2268" y="2067" width="246" height="56" as="geometry"/>
                </mxCell>
                <mxCell id="67" value="Balance Gear 15kV&lt;br&gt;The product page" style="rounded=1;whiteSpace=wrap;html=1;fillColor=#007dba;fontColor=#ffffff;strokeColor=#001DBC;horizontal=1;gradientColor=none;" parent="1" vertex="1">
                    <mxGeometry x="2112" y="1519" width="246" height="56" as="geometry"/>
                </mxCell>
                <mxCell id="74" value="login" style="rounded=1;whiteSpace=wrap;html=1;fillColor=#007dba;fontColor=#ffffff;strokeColor=#001DBC;horizontal=1;gradientColor=none;" parent="1" vertex="1">
                    <mxGeometry x="2031" y="1183" width="246" height="56" as="geometry"/>
                </mxCell>
                <mxCell id="76" value="Multiple product offerings" style="rounded=1;whiteSpace=wrap;html=1;fillColor=#007dba;fontColor=#ffffff;strokeColor=#001DBC;horizontal=1;gradientColor=none;" parent="1" vertex="1">
                    <mxGeometry x="2057" y="1413" width="246" height="56" as="geometry"/>
                </mxCell>
                <mxCell id="79" value="Products, services, main nav page" style="rounded=1;whiteSpace=wrap;html=1;fillColor=#007dba;fontColor=#ffffff;strokeColor=#001DBC;horizontal=1;gradientColor=none;" parent="1" vertex="1">
                    <mxGeometry x="2031" y="1302" width="246" height="56" as="geometry"/>
                </mxCell>
                <mxCell id="107" style="edgeStyle=none;html=1;entryX=1;entryY=0.25;entryDx=0;entryDy=0;fontFamily=Courier New;fontSize=16;fontColor=#FF8000;curved=1;" parent="1" source="106" target="103" edge="1">
                    <mxGeometry relative="1" as="geometry">
                        <Array as="points">
                            <mxPoint x="3714" y="1176"/>
                            <mxPoint x="3697" y="1234"/>
                        </Array>
                    </mxGeometry>
                </mxCell>
                <mxCell id="106" value="&lt;font color=&quot;#ff8000&quot; face=&quot;Courier New&quot; style=&quot;font-size: 16px;&quot;&gt;block&lt;/font&gt;" style="text;html=1;strokeColor=none;fillColor=none;align=center;verticalAlign=middle;whiteSpace=wrap;rounded=0;dashed=1;labelBorderColor=none;fontColor=#A2E080;fontSize=16;" parent="1" vertex="1">
                    <mxGeometry x="3775" y="1150" width="104" height="30" as="geometry"/>
                </mxCell>
                <mxCell id="104" value="&lt;div style=&quot;background-color: rgb(31, 31, 31); font-size: 16.8px; line-height: 22px;&quot;&gt;&lt;div style=&quot;&quot;&gt;&lt;font color=&quot;#9cdcfe&quot;&gt;master_nav&lt;/font&gt;&lt;/div&gt;&lt;/div&gt;" style="text;whiteSpace=wrap;html=1;fontSize=16;fontColor=#000000;strokeColor=#99CCFF;dashed=1;align=center;fontFamily=Courier New;fontStyle=1" parent="1" vertex="1">
                    <mxGeometry x="2852" y="933" width="638" height="98" as="geometry"/>
                </mxCell>
                <mxCell id="109" style="edgeStyle=none;html=1;entryX=1;entryY=0.25;entryDx=0;entryDy=0;fontFamily=Courier New;fontSize=16;fontColor=#FF8000;curved=1;" parent="1" edge="1">
                    <mxGeometry relative="1" as="geometry">
                        <mxPoint x="3772" y="1305.5" as="sourcePoint"/>
                        <mxPoint x="3618" y="1336.25" as="targetPoint"/>
                        <Array as="points">
                            <mxPoint x="3714" y="1305.5"/>
                            <mxPoint x="3697" y="1363.5"/>
                        </Array>
                    </mxGeometry>
                </mxCell>
                <mxCell id="110" value="&lt;font color=&quot;#ff8000&quot; face=&quot;Courier New&quot; style=&quot;font-size: 16px;&quot;&gt;block&lt;/font&gt;" style="text;html=1;strokeColor=none;fillColor=none;align=center;verticalAlign=middle;whiteSpace=wrap;rounded=0;dashed=1;labelBorderColor=none;fontColor=#A2E080;fontSize=16;" parent="1" vertex="1">
                    <mxGeometry x="3778" y="1290" width="104" height="30" as="geometry"/>
                </mxCell>
            </root>
        </mxGraphModel>
    </diagram>
    <diagram id="feIU0d3nAP-tM2iSLcv4" name="Page-2">
        <mxGraphModel dx="1404" dy="1234" grid="0" gridSize="10" guides="0" tooltips="1" connect="1" arrows="1" fold="1" page="1" pageScale="1" pageWidth="4400" pageHeight="3400" math="0" shadow="0">
            <root>
                <mxCell id="0"/>
                <mxCell id="1" parent="0"/>
                <mxCell id="SLqZ0sYRYsu_ddO-HzK8-1" value="product page" style="swimlane;whiteSpace=wrap;html=1;startSize=38;fontSize=16;fillColor=none;fontFamily=Courier New;" parent="1" vertex="1">
                    <mxGeometry x="2490" y="1990" width="930" height="1035" as="geometry">
                        <mxRectangle x="2643" y="222" width="112" height="31" as="alternateBounds"/>
                    </mxGeometry>
                </mxCell>
                <mxCell id="SLqZ0sYRYsu_ddO-HzK8-2" value="&lt;div style=&quot;color: rgb(204, 204, 204); background-color: rgb(31, 31, 31); font-size: 16.8px; line-height: 22px;&quot;&gt;&lt;div style=&quot;&quot;&gt;&lt;span style=&quot;color: rgb(156, 220, 254);&quot;&gt;master_footer&lt;/span&gt;&lt;/div&gt;&lt;/div&gt;" style="text;whiteSpace=wrap;html=1;fontSize=16;fontColor=#000000;strokeColor=#99CCFF;dashed=1;align=center;fontFamily=Courier New;fontStyle=1" parent="SLqZ0sYRYsu_ddO-HzK8-1" vertex="1">
                    <mxGeometry x="17" y="780" width="901" height="104" as="geometry"/>
                </mxCell>
                <mxCell id="SLqZ0sYRYsu_ddO-HzK8-4" value="main" style="rounded=0;whiteSpace=wrap;html=1;labelBackgroundColor=none;fontSize=16;fillColor=none;verticalAlign=top;fontFamily=Courier New;fontStyle=1;fontColor=#A2E080;labelBorderColor=none;strokeColor=#A2E080;dashed=1;" parent="SLqZ0sYRYsu_ddO-HzK8-1" vertex="1">
                    <mxGeometry x="144.49" y="255" width="642" height="497" as="geometry"/>
                </mxCell>
                <mxCell id="SLqZ0sYRYsu_ddO-HzK8-5" value="navbar" style="rounded=0;whiteSpace=wrap;html=1;fillColor=#d0cee2;strokeColor=#56517e;fontColor=#000000;fontSize=16;fontFamily=Courier New;fontStyle=1" parent="SLqZ0sYRYsu_ddO-HzK8-1" vertex="1">
                    <mxGeometry x="173.49499999999995" y="101" width="580" height="40" as="geometry"/>
                </mxCell>
                <mxCell id="SLqZ0sYRYsu_ddO-HzK8-7" value="center" style="rounded=0;whiteSpace=wrap;html=1;fontSize=16;fillColor=#fad9d5;strokeColor=none;fontColor=#000000;labelBackgroundColor=none;fontFamily=Courier New;fontStyle=1;verticalAlign=top;" parent="SLqZ0sYRYsu_ddO-HzK8-1" vertex="1">
                    <mxGeometry x="337.74" y="291" width="406.25" height="440" as="geometry"/>
                </mxCell>
                <mxCell id="SLqZ0sYRYsu_ddO-HzK8-8" value="footer" style="rounded=0;whiteSpace=wrap;html=1;fillColor=#d0cee2;strokeColor=#56517e;fontColor=#000000;fontSize=16;fontFamily=Courier New;fontStyle=1" parent="SLqZ0sYRYsu_ddO-HzK8-1" vertex="1">
                    <mxGeometry x="148.31" y="819" width="641" height="40" as="geometry"/>
                </mxCell>
                <mxCell id="SLqZ0sYRYsu_ddO-HzK8-9" value="top_msg" style="rounded=0;whiteSpace=wrap;html=1;fillColor=none;fontSize=16;fontFamily=Courier New;fontStyle=1;dashed=1;" parent="SLqZ0sYRYsu_ddO-HzK8-1" vertex="1">
                    <mxGeometry x="14.81" y="191" width="903" height="39" as="geometry"/>
                </mxCell>
                <mxCell id="SLqZ0sYRYsu_ddO-HzK8-6" value="sidebar" style="rounded=0;whiteSpace=wrap;html=1;fontSize=16;fillColor=#b1ddf0;labelBackgroundColor=none;fontFamily=Courier New;fontStyle=1;verticalAlign=top;strokeColor=#10739e;fontColor=#000000;" parent="1" vertex="1">
                    <mxGeometry x="2283" y="970" width="215" height="650" as="geometry"/>
                </mxCell>
                <mxCell id="SLqZ0sYRYsu_ddO-HzK8-15" value="navbar" style="rounded=0;whiteSpace=wrap;html=1;fontSize=16;fillColor=#b1ddf0;labelBackgroundColor=none;fontFamily=Courier New;fontStyle=1;verticalAlign=top;strokeColor=#10739e;fontColor=#000000;" parent="1" vertex="1">
                    <mxGeometry x="2283" y="910" width="1100" height="44" as="geometry"/>
                </mxCell>
                <mxCell id="SLqZ0sYRYsu_ddO-HzK8-16" value="main" style="rounded=0;whiteSpace=wrap;html=1;fontSize=16;fillColor=#b1ddf0;labelBackgroundColor=none;fontFamily=Courier New;fontStyle=1;verticalAlign=top;strokeColor=#10739e;fontColor=#000000;" parent="1" vertex="1">
                    <mxGeometry x="2520" y="970" width="860" height="540" as="geometry"/>
                </mxCell>
                <mxCell id="SLqZ0sYRYsu_ddO-HzK8-17" value="footer" style="rounded=0;whiteSpace=wrap;html=1;fontSize=16;fillColor=#b1ddf0;labelBackgroundColor=none;fontFamily=Courier New;fontStyle=1;verticalAlign=top;strokeColor=#10739e;fontColor=#000000;" parent="1" vertex="1">
                    <mxGeometry x="2520" y="1530" width="860" height="90" as="geometry"/>
                </mxCell>
                <mxCell id="fIDc2XKD9W5YXvEKU65E-2" value="&lt;span style=&quot;font-family: &amp;quot;Courier New&amp;quot;; font-size: 16px; font-style: normal; font-variant-ligatures: normal; font-variant-caps: normal; font-weight: 700; letter-spacing: normal; orphans: 2; text-align: center; text-indent: 0px; text-transform: none; widows: 2; word-spacing: 0px; -webkit-text-stroke-width: 0px; background-color: rgb(42, 37, 47); text-decoration-thickness: initial; text-decoration-style: initial; text-decoration-color: initial; float: none; display: inline !important;&quot;&gt;navbar&lt;/span&gt;" style="text;whiteSpace=wrap;html=1;fontColor=#F0F0F0;" parent="1" vertex="1">
                    <mxGeometry x="4981" y="68" width="90" height="40" as="geometry"/>
                </mxCell>
                <mxCell id="fIDc2XKD9W5YXvEKU65E-5" value=".navbar{&lt;br style=&quot;font-size: 16px;&quot;&gt;&lt;br style=&quot;font-size: 16px;&quot;&gt;&lt;blockquote style=&quot;margin: 0 0 0 40px; border: none; padding: 0px;&quot;&gt;display: flex,&amp;nbsp;&lt;br&gt; justify-content: space-between;&lt;br&gt;align-items: baseline;&lt;br&gt;padding: 1rem 10%;&lt;br&gt;height: 5rem;&lt;br&gt;width: ...&lt;br&gt;}&lt;/blockquote&gt;" style="text;fontColor=#F0F0F0;labelBackgroundColor=#000000;labelBorderColor=none;html=1;whiteSpace=wrap;fontFamily=Lucida Console;fontSize=16;" parent="1" vertex="1">
                    <mxGeometry x="4504" y="214" width="430" height="202" as="geometry"/>
                </mxCell>
                <mxCell id="fIDc2XKD9W5YXvEKU65E-6" value="" style="group" parent="1" vertex="1" connectable="0">
                    <mxGeometry x="4500" y="104" width="1100" height="64" as="geometry"/>
                </mxCell>
                <mxCell id="fIDc2XKD9W5YXvEKU65E-1" value="" style="rounded=0;whiteSpace=wrap;html=1;fontSize=16;fillColor=#b1ddf0;labelBackgroundColor=none;fontFamily=Courier New;fontStyle=1;verticalAlign=top;strokeColor=#10739e;fontColor=#000000;" parent="fIDc2XKD9W5YXvEKU65E-6" vertex="1">
                    <mxGeometry width="1100" height="64" as="geometry"/>
                </mxCell>
                <mxCell id="fIDc2XKD9W5YXvEKU65E-3" value="group2" style="rounded=0;whiteSpace=wrap;html=1;fontSize=16;fillColor=#1ba1e2;labelBackgroundColor=none;fontFamily=Courier New;fontStyle=1;verticalAlign=middle;strokeColor=#006EAF;fontColor=#ffffff;" parent="fIDc2XKD9W5YXvEKU65E-6" vertex="1">
                    <mxGeometry x="780" y="12.5" width="310" height="39" as="geometry"/>
                </mxCell>
                <mxCell id="fIDc2XKD9W5YXvEKU65E-4" value="group1" style="rounded=0;whiteSpace=wrap;html=1;fontSize=16;fillColor=#1ba1e2;labelBackgroundColor=none;fontFamily=Courier New;fontStyle=1;verticalAlign=middle;strokeColor=#006EAF;fontColor=#ffffff;" parent="fIDc2XKD9W5YXvEKU65E-6" vertex="1">
                    <mxGeometry x="20" y="12.5" width="310" height="39" as="geometry"/>
                </mxCell>
            </root>
        </mxGraphModel>
    </diagram>
</mxfile>